<?xml version="1.0" encoding="utf-8"?>
<svg version="1.1" width="554" height="598" xmlns="http://www.w3.org/2000/svg">
  <defs/>
  <path d="M 271.112 106.402 C 271.776 106.403 272.437 106.405 273.12 106.407 C 329.357 106.649 377.481 126.153 417.13 167.385 C 421.998 172.522 426.538 177.75 430.719 183.511 C 431.408 184.44 432.097 185.37 432.807 186.329 C 446.267 204.888 456.379 225.236 463.379 247.212 C 463.587 247.862 463.794 248.51 464.009 249.179 C 470.582 269.805 473.883 289.882 473.696 311.557 C 473.692 312.466 473.687 313.375 473.682 314.311 C 473.437 351.263 465.319 387.479 445.234 418.643 C 444.768 419.373 444.299 420.104 443.818 420.855 C 438.864 428.554 433.945 436.076 427.998 442.999 C 425.367 440.281 425.699 437.318 425.476 433.658 C 425.422 432.911 425.369 432.164 425.312 431.394 C 425.14 428.999 424.982 426.602 424.823 424.206 C 424.663 421.832 424.502 419.458 424.333 417.086 C 424.228 415.608 424.128 414.133 424.035 412.657 C 423.683 407.645 422.78 402.914 421.647 398.034 C 421.476 397.124 421.307 396.215 421.13 395.278 C 416.659 373.462 402.119 355.847 384.391 343.903 C 369.515 334.226 353.404 326.036 337.584 318.152 C 336.997 317.858 336.414 317.565 335.807 317.263 C 334.367 316.55 332.922 315.851 331.475 315.154 C 326.038 311.858 324.36 308.608 322.766 302.482 C 321.867 302.173 320.969 301.863 320.044 301.546 C 321.258 298.981 322.558 296.503 323.955 294.04 C 324.35 293.33 324.746 292.618 325.153 291.887 C 325.971 290.417 326.799 288.95 327.634 287.488 C 330.059 283.089 331.521 279.292 332.169 274.254 C 332.744 272.505 332.744 272.505 334.411 271.227 C 336.203 270.34 336.203 270.34 338.032 269.646 C 343.722 267.076 345.884 262.99 348.391 257.457 C 348.71 256.784 349.03 256.108 349.356 255.415 C 352.876 247.887 353.847 240.535 352.703 232.224 C 350.785 226.935 348.605 223.386 343.629 220.981 C 343.644 220.077 343.659 219.17 343.673 218.236 C 343.723 214.822 343.755 211.407 343.779 207.993 C 343.793 206.524 343.811 205.056 343.834 203.588 C 344.054 189.689 342.91 177.638 333.88 166.584 C 330.305 162.913 327.431 161.605 322.482 160.618 C 319.64 160.021 319.64 160.021 317.321 159.155 C 316.166 157.332 315.818 155.763 315.337 153.65 C 313.816 149.545 309.889 147.401 306.434 145.103 C 305.874 144.726 305.314 144.349 304.735 143.961 C 291.55 136.217 273.45 136.845 259.198 140.643 C 240.779 145.956 226.06 156.93 216.464 174.129 C 211.033 185.763 210.827 196.135 211.393 208.697 C 211.478 210.803 211.534 212.907 211.584 215.015 C 211.624 215.652 211.663 216.292 211.705 216.95 C 211.74 218.763 211.74 218.763 211.181 221.919 C 208.567 224.035 208.567 224.035 205.737 225.665 C 202.238 230.605 201.511 234.38 201.654 240.42 C 201.668 241.163 201.679 241.905 201.692 242.67 C 202.019 252.317 204.944 259.35 210.922 266.782 C 213.138 268.894 214.889 269.693 217.703 270.748 C 221.156 272.268 221.918 273.092 223.459 276.724 C 224.248 279.343 224.901 281.991 225.561 284.646 C 227.127 290.81 230.265 296.25 234.769 300.61 C 234.356 301.938 233.939 303.264 233.522 304.591 C 233.29 305.328 233.057 306.067 232.819 306.829 C 232.565 307.559 232.309 308.289 232.047 309.04 C 231.834 309.679 231.623 310.318 231.404 310.975 C 229.665 313.662 227.224 314.816 224.506 316.241 C 223.91 316.561 223.317 316.883 222.703 317.212 C 216.898 320.27 210.901 322.836 204.89 325.429 C 197.058 328.848 189.597 332.863 182.142 337.072 C 180.593 337.935 179.028 338.767 177.459 339.59 C 158.449 349.661 142.43 366.676 134.581 387.319 C 134.079 389.008 133.609 390.708 133.162 392.413 C 132.851 393.439 132.538 394.465 132.217 395.523 C 129.21 406.213 128.784 417.163 128.26 428.216 C 128.23 428.86 128.197 429.506 128.165 430.169 C 128.081 431.944 128.005 433.722 127.931 435.497 C 127.72 438.316 127.72 438.316 126.813 441.126 C 124.05 439.887 122.54 438.739 120.801 436.208 C 120.103 435.194 120.103 435.194 119.389 434.162 C 118.845 433.369 118.302 432.576 117.741 431.757 C 117.077 430.84 116.411 429.921 115.723 428.973 C 105.47 414.724 97.631 399.58 91.433 383.046 C 91.003 381.954 90.58 380.861 90.139 379.737 C 87.716 373.229 86.003 366.64 84.458 359.86 C 84.274 359.069 84.091 358.278 83.9 357.462 C 80.903 343.637 80.199 329.605 80.263 315.48 C 80.264 314.732 80.265 313.984 80.267 313.214 C 80.307 300.425 81.055 287.921 83.267 275.315 C 83.465 274.194 83.465 274.194 83.665 273.049 C 89.456 241.371 101.446 211.576 120.452 185.989 C 122.01 183.871 123.488 181.725 124.942 179.529 C 125.559 178.679 126.178 177.829 126.813 176.954 C 127.412 176.954 128.009 176.954 128.627 176.954 C 128.869 176.4 129.109 175.847 129.358 175.276 C 130.466 173.16 131.606 171.761 133.246 170.063 C 133.801 169.485 134.36 168.904 134.933 168.309 C 135.527 167.703 136.122 167.098 136.735 166.473 C 137.346 165.847 137.958 165.22 138.59 164.575 C 143.499 159.601 148.601 155.09 154.029 150.723 C 154.749 150.103 155.469 149.485 156.212 148.847 C 181.129 127.501 212.086 114.015 243.839 108.57 C 245.257 108.317 245.257 108.317 246.703 108.061 C 254.852 106.724 262.878 106.358 271.112 106.402 Z" fill="#DAD7CA" style=""/>
</svg>